STARTFONT 2.1
FONT -FontForge-5x5 Font Monospaced-Book-R-Normal--5-50-75-75-P-59-ISO10646-1
SIZE 5 75 75
FONTBOUNDINGBOX 5 5 0 0
COMMENT "Generated by fontforge, http://fontforge.sourceforge.net"
COMMENT "Copyright CTFonts 2019"
STARTPROPERTIES 40
FOUNDRY "FontForge"
FAMILY_NAME "5x5 Font Monospaced"
WEIGHT_NAME "Book"
SLANT "R"
SETWIDTH_NAME "Normal"
ADD_STYLE_NAME ""
PIXEL_SIZE 5
POINT_SIZE 50
RESOLUTION_X 75
RESOLUTION_Y 75
SPACING "P"
AVERAGE_WIDTH 59
CHARSET_REGISTRY "ISO10646"
CHARSET_ENCODING "1"
FONTNAME_REGISTRY ""
CHARSET_COLLECTIONS "ISO10646-1"
FONT_NAME "5x5FontMonospaced"
FACE_NAME "5x5 Font Monospaced Regular"
COPYRIGHT "Copyright CTFonts 2019"
FONT_VERSION "1.0"
FONT_ASCENT 5
FONT_DESCENT 0
UNDERLINE_POSITION 0
UNDERLINE_THICKNESS 1
X_HEIGHT 3
CAP_HEIGHT 4
RAW_ASCENT 1000
RAW_DESCENT 0
NORM_SPACE 6
RELATIVE_WEIGHT 40
RELATIVE_SETWIDTH 50
SUPERSCRIPT_X 0
SUPERSCRIPT_Y 2
SUPERSCRIPT_SIZE 2
SUBSCRIPT_X 0
SUBSCRIPT_Y 0
SUBSCRIPT_SIZE 2
FIGURE_WIDTH 6
AVG_LOWERCASE_WIDTH 60
AVG_UPPERCASE_WIDTH 60
ENDPROPERTIES
CHARS 100
STARTCHAR space
ENCODING 32
SWIDTH 1199 0
DWIDTH 6 0
BBX 1 1 0 0
BITMAP
00
ENDCHAR
STARTCHAR exclam
ENCODING 33
SWIDTH 1199 0
DWIDTH 6 0
BBX 1 5 2 0
BITMAP
80
80
80
00
80
ENDCHAR
STARTCHAR quotedbl
ENCODING 34
SWIDTH 1199 0
DWIDTH 6 0
BBX 3 2 1 3
BITMAP
A0
A0
ENDCHAR
STARTCHAR numbersign
ENCODING 35
SWIDTH 1199 0
DWIDTH 6 0
BBX 5 5 0 0
BITMAP
50
F8
50
F8
50
ENDCHAR
STARTCHAR dollar
ENCODING 36
SWIDTH 1199 0
DWIDTH 6 0
BBX 5 5 0 0
BITMAP
78
A0
70
28
F0
ENDCHAR
STARTCHAR percent
ENCODING 37
SWIDTH 1199 0
DWIDTH 6 0
BBX 5 5 0 0
BITMAP
C8
D0
20
58
98
ENDCHAR
STARTCHAR ampersand
ENCODING 38
SWIDTH 1199 0
DWIDTH 6 0
BBX 5 5 0 0
BITMAP
60
90
68
90
68
ENDCHAR
STARTCHAR quotesingle
ENCODING 39
SWIDTH 1199 0
DWIDTH 6 0
BBX 1 2 2 3
BITMAP
80
80
ENDCHAR
STARTCHAR parenleft
ENCODING 40
SWIDTH 1199 0
DWIDTH 6 0
BBX 2 5 1 0
BITMAP
40
80
80
80
40
ENDCHAR
STARTCHAR parenright
ENCODING 41
SWIDTH 1199 0
DWIDTH 6 0
BBX 2 5 2 0
BITMAP
80
40
40
40
80
ENDCHAR
STARTCHAR asterisk
ENCODING 42
SWIDTH 1199 0
DWIDTH 6 0
BBX 3 3 1 2
BITMAP
A0
40
A0
ENDCHAR
STARTCHAR plus
ENCODING 43
SWIDTH 1199 0
DWIDTH 6 0
BBX 5 5 0 0
BITMAP
20
20
F8
20
20
ENDCHAR
STARTCHAR comma
ENCODING 44
SWIDTH 1199 0
DWIDTH 6 0
BBX 2 2 1 0
BITMAP
40
80
ENDCHAR
STARTCHAR hyphen
ENCODING 45
SWIDTH 1199 0
DWIDTH 6 0
BBX 5 1 0 2
BITMAP
F8
ENDCHAR
STARTCHAR period
ENCODING 46
SWIDTH 1199 0
DWIDTH 6 0
BBX 1 1 2 0
BITMAP
80
ENDCHAR
STARTCHAR slash
ENCODING 47
SWIDTH 1199 0
DWIDTH 6 0
BBX 5 5 0 0
BITMAP
08
10
20
40
80
ENDCHAR
STARTCHAR zero
ENCODING 48
SWIDTH 1199 0
DWIDTH 6 0
BBX 5 5 0 0
BITMAP
70
98
A8
C8
70
ENDCHAR
STARTCHAR one
ENCODING 49
SWIDTH 1199 0
DWIDTH 6 0
BBX 3 5 1 0
BITMAP
40
C0
40
40
E0
ENDCHAR
STARTCHAR two
ENCODING 50
SWIDTH 1199 0
DWIDTH 6 0
BBX 5 5 0 0
BITMAP
70
88
30
40
F8
ENDCHAR
STARTCHAR three
ENCODING 51
SWIDTH 1199 0
DWIDTH 6 0
BBX 5 5 0 0
BITMAP
F0
08
70
08
F0
ENDCHAR
STARTCHAR four
ENCODING 52
SWIDTH 1199 0
DWIDTH 6 0
BBX 5 5 0 0
BITMAP
90
90
F8
10
10
ENDCHAR
STARTCHAR five
ENCODING 53
SWIDTH 1199 0
DWIDTH 6 0
BBX 5 5 0 0
BITMAP
F8
80
F0
08
F0
ENDCHAR
STARTCHAR six
ENCODING 54
SWIDTH 1199 0
DWIDTH 6 0
BBX 5 5 0 0
BITMAP
78
80
F0
88
70
ENDCHAR
STARTCHAR seven
ENCODING 55
SWIDTH 1199 0
DWIDTH 6 0
BBX 5 5 0 0
BITMAP
F8
10
20
40
80
ENDCHAR
STARTCHAR eight
ENCODING 56
SWIDTH 1199 0
DWIDTH 6 0
BBX 5 5 0 0
BITMAP
70
88
70
88
70
ENDCHAR
STARTCHAR nine
ENCODING 57
SWIDTH 1199 0
DWIDTH 6 0
BBX 5 5 0 0
BITMAP
70
88
78
08
F0
ENDCHAR
STARTCHAR colon
ENCODING 58
SWIDTH 1199 0
DWIDTH 6 0
BBX 1 3 2 1
BITMAP
80
00
80
ENDCHAR
STARTCHAR semicolon
ENCODING 59
SWIDTH 1199 0
DWIDTH 6 0
BBX 2 4 1 0
BITMAP
40
00
40
80
ENDCHAR
STARTCHAR less
ENCODING 60
SWIDTH 1199 0
DWIDTH 6 0
BBX 3 5 1 0
BITMAP
20
40
80
40
20
ENDCHAR
STARTCHAR equal
ENCODING 61
SWIDTH 1199 0
DWIDTH 6 0
BBX 5 3 0 1
BITMAP
F8
00
F8
ENDCHAR
STARTCHAR greater
ENCODING 62
SWIDTH 1199 0
DWIDTH 6 0
BBX 3 5 1 0
BITMAP
80
40
20
40
80
ENDCHAR
STARTCHAR question
ENCODING 63
SWIDTH 1199 0
DWIDTH 6 0
BBX 5 5 0 0
BITMAP
70
88
30
00
20
ENDCHAR
STARTCHAR at
ENCODING 64
SWIDTH 1199 0
DWIDTH 6 0
BBX 5 5 0 0
BITMAP
70
88
B8
80
78
ENDCHAR
STARTCHAR A
ENCODING 65
SWIDTH 1199 0
DWIDTH 6 0
BBX 5 5 0 0
BITMAP
70
88
F8
88
88
ENDCHAR
STARTCHAR B
ENCODING 66
SWIDTH 1199 0
DWIDTH 6 0
BBX 5 5 0 0
BITMAP
F0
88
F0
88
F0
ENDCHAR
STARTCHAR C
ENCODING 67
SWIDTH 1199 0
DWIDTH 6 0
BBX 5 5 0 0
BITMAP
70
88
80
88
70
ENDCHAR
STARTCHAR D
ENCODING 68
SWIDTH 1199 0
DWIDTH 6 0
BBX 5 5 0 0
BITMAP
F0
88
88
88
F0
ENDCHAR
STARTCHAR E
ENCODING 69
SWIDTH 1199 0
DWIDTH 6 0
BBX 5 5 0 0
BITMAP
F8
80
F0
80
F8
ENDCHAR
STARTCHAR F
ENCODING 70
SWIDTH 1199 0
DWIDTH 6 0
BBX 5 5 0 0
BITMAP
F8
80
F0
80
80
ENDCHAR
STARTCHAR G
ENCODING 71
SWIDTH 1199 0
DWIDTH 6 0
BBX 5 5 0 0
BITMAP
78
80
B8
88
78
ENDCHAR
STARTCHAR H
ENCODING 72
SWIDTH 1199 0
DWIDTH 6 0
BBX 5 5 0 0
BITMAP
88
88
F8
88
88
ENDCHAR
STARTCHAR I
ENCODING 73
SWIDTH 1199 0
DWIDTH 6 0
BBX 3 5 1 0
BITMAP
E0
40
40
40
E0
ENDCHAR
STARTCHAR J
ENCODING 74
SWIDTH 1199 0
DWIDTH 6 0
BBX 5 5 0 0
BITMAP
38
10
10
90
60
ENDCHAR
STARTCHAR K
ENCODING 75
SWIDTH 1199 0
DWIDTH 6 0
BBX 5 5 0 0
BITMAP
88
90
E0
90
88
ENDCHAR
STARTCHAR L
ENCODING 76
SWIDTH 1199 0
DWIDTH 6 0
BBX 5 5 0 0
BITMAP
80
80
80
80
F8
ENDCHAR
STARTCHAR M
ENCODING 77
SWIDTH 1199 0
DWIDTH 6 0
BBX 5 5 0 0
BITMAP
88
D8
A8
88
88
ENDCHAR
STARTCHAR N
ENCODING 78
SWIDTH 1199 0
DWIDTH 6 0
BBX 5 5 0 0
BITMAP
88
C8
A8
98
88
ENDCHAR
STARTCHAR O
ENCODING 79
SWIDTH 1199 0
DWIDTH 6 0
BBX 5 5 0 0
BITMAP
70
88
88
88
70
ENDCHAR
STARTCHAR P
ENCODING 80
SWIDTH 1199 0
DWIDTH 6 0
BBX 5 5 0 0
BITMAP
F0
88
F0
80
80
ENDCHAR
STARTCHAR Q
ENCODING 81
SWIDTH 1199 0
DWIDTH 6 0
BBX 5 5 0 0
BITMAP
70
88
A8
90
68
ENDCHAR
STARTCHAR R
ENCODING 82
SWIDTH 1199 0
DWIDTH 6 0
BBX 5 5 0 0
BITMAP
F0
88
F0
88
88
ENDCHAR
STARTCHAR S
ENCODING 83
SWIDTH 1199 0
DWIDTH 6 0
BBX 5 5 0 0
BITMAP
78
80
70
08
F0
ENDCHAR
STARTCHAR T
ENCODING 84
SWIDTH 1199 0
DWIDTH 6 0
BBX 5 5 0 0
BITMAP
F8
20
20
20
20
ENDCHAR
STARTCHAR U
ENCODING 85
SWIDTH 1199 0
DWIDTH 6 0
BBX 5 5 0 0
BITMAP
88
88
88
88
70
ENDCHAR
STARTCHAR V
ENCODING 86
SWIDTH 1199 0
DWIDTH 6 0
BBX 5 5 0 0
BITMAP
88
88
88
50
20
ENDCHAR
STARTCHAR W
ENCODING 87
SWIDTH 1199 0
DWIDTH 6 0
BBX 5 5 0 0
BITMAP
88
88
A8
D8
88
ENDCHAR
STARTCHAR X
ENCODING 88
SWIDTH 1199 0
DWIDTH 6 0
BBX 5 5 0 0
BITMAP
88
50
20
50
88
ENDCHAR
STARTCHAR Y
ENCODING 89
SWIDTH 1199 0
DWIDTH 6 0
BBX 5 5 0 0
BITMAP
88
50
20
20
20
ENDCHAR
STARTCHAR Z
ENCODING 90
SWIDTH 1199 0
DWIDTH 6 0
BBX 5 5 0 0
BITMAP
F8
10
20
40
F8
ENDCHAR
STARTCHAR bracketleft
ENCODING 91
SWIDTH 1199 0
DWIDTH 6 0
BBX 2 5 1 0
BITMAP
C0
80
80
80
C0
ENDCHAR
STARTCHAR backslash
ENCODING 92
SWIDTH 1199 0
DWIDTH 6 0
BBX 5 5 0 0
BITMAP
80
40
20
10
08
ENDCHAR
STARTCHAR bracketright
ENCODING 93
SWIDTH 1199 0
DWIDTH 6 0
BBX 2 5 2 0
BITMAP
C0
40
40
40
C0
ENDCHAR
STARTCHAR asciicircum
ENCODING 94
SWIDTH 1199 0
DWIDTH 6 0
BBX 5 3 0 2
BITMAP
20
50
88
ENDCHAR
STARTCHAR underscore
ENCODING 95
SWIDTH 1199 0
DWIDTH 6 0
BBX 5 1 0 0
BITMAP
F8
ENDCHAR
STARTCHAR grave
ENCODING 96
SWIDTH 1199 0
DWIDTH 6 0
BBX 3 3 1 2
BITMAP
80
40
20
ENDCHAR
STARTCHAR a
ENCODING 97
SWIDTH 1199 0
DWIDTH 6 0
BBX 5 4 0 0
BITMAP
78
88
88
78
ENDCHAR
STARTCHAR b
ENCODING 98
SWIDTH 1199 0
DWIDTH 6 0
BBX 5 5 0 0
BITMAP
80
80
F0
88
F0
ENDCHAR
STARTCHAR c
ENCODING 99
SWIDTH 1199 0
DWIDTH 6 0
BBX 5 4 0 0
BITMAP
78
80
80
78
ENDCHAR
STARTCHAR d
ENCODING 100
SWIDTH 1199 0
DWIDTH 6 0
BBX 5 5 0 0
BITMAP
08
08
78
88
78
ENDCHAR
STARTCHAR e
ENCODING 101
SWIDTH 1199 0
DWIDTH 6 0
BBX 5 5 0 0
BITMAP
70
88
F8
80
78
ENDCHAR
STARTCHAR f
ENCODING 102
SWIDTH 1199 0
DWIDTH 6 0
BBX 5 5 0 0
BITMAP
18
20
F8
20
20
ENDCHAR
STARTCHAR g
ENCODING 103
SWIDTH 1199 0
DWIDTH 6 0
BBX 5 5 0 0
BITMAP
78
88
78
08
F0
ENDCHAR
STARTCHAR h
ENCODING 104
SWIDTH 1199 0
DWIDTH 6 0
BBX 5 5 0 0
BITMAP
80
80
F0
88
88
ENDCHAR
STARTCHAR i
ENCODING 105
SWIDTH 1199 0
DWIDTH 6 0
BBX 1 5 2 0
BITMAP
80
00
80
80
80
ENDCHAR
STARTCHAR j
ENCODING 106
SWIDTH 1199 0
DWIDTH 6 0
BBX 5 5 0 0
BITMAP
08
00
08
08
F0
ENDCHAR
STARTCHAR k
ENCODING 107
SWIDTH 1199 0
DWIDTH 6 0
BBX 5 5 0 0
BITMAP
80
90
E0
90
88
ENDCHAR
STARTCHAR l
ENCODING 108
SWIDTH 1199 0
DWIDTH 6 0
BBX 3 5 1 0
BITMAP
C0
40
40
40
E0
ENDCHAR
STARTCHAR m
ENCODING 109
SWIDTH 1199 0
DWIDTH 6 0
BBX 5 4 0 0
BITMAP
F0
A8
A8
A8
ENDCHAR
STARTCHAR n
ENCODING 110
SWIDTH 1199 0
DWIDTH 6 0
BBX 5 4 0 0
BITMAP
B0
C8
88
88
ENDCHAR
STARTCHAR o
ENCODING 111
SWIDTH 1199 0
DWIDTH 6 0
BBX 5 4 0 0
BITMAP
70
88
88
70
ENDCHAR
STARTCHAR p
ENCODING 112
SWIDTH 1199 0
DWIDTH 6 0
BBX 5 4 0 0
BITMAP
F0
88
F0
80
ENDCHAR
STARTCHAR q
ENCODING 113
SWIDTH 1199 0
DWIDTH 6 0
BBX 5 4 0 0
BITMAP
78
88
78
08
ENDCHAR
STARTCHAR r
ENCODING 114
SWIDTH 1199 0
DWIDTH 6 0
BBX 5 4 0 0
BITMAP
B8
C0
80
80
ENDCHAR
STARTCHAR s
ENCODING 115
SWIDTH 1199 0
DWIDTH 6 0
BBX 4 5 0 0
BITMAP
70
80
60
10
E0
ENDCHAR
STARTCHAR t
ENCODING 116
SWIDTH 1199 0
DWIDTH 6 0
BBX 5 5 0 0
BITMAP
40
F0
40
48
30
ENDCHAR
STARTCHAR u
ENCODING 117
SWIDTH 1199 0
DWIDTH 6 0
BBX 5 4 0 0
BITMAP
88
88
98
68
ENDCHAR
STARTCHAR v
ENCODING 118
SWIDTH 1199 0
DWIDTH 6 0
BBX 5 4 0 0
BITMAP
88
88
50
20
ENDCHAR
STARTCHAR w
ENCODING 119
SWIDTH 1199 0
DWIDTH 6 0
BBX 5 4 0 0
BITMAP
88
A8
D8
88
ENDCHAR
STARTCHAR x
ENCODING 120
SWIDTH 1199 0
DWIDTH 6 0
BBX 5 4 0 0
BITMAP
88
70
50
88
ENDCHAR
STARTCHAR y
ENCODING 121
SWIDTH 1199 0
DWIDTH 6 0
BBX 5 4 0 0
BITMAP
88
78
08
F0
ENDCHAR
STARTCHAR z
ENCODING 122
SWIDTH 1199 0
DWIDTH 6 0
BBX 4 4 0 0
BITMAP
F0
20
40
F0
ENDCHAR
STARTCHAR braceleft
ENCODING 123
SWIDTH 1199 0
DWIDTH 6 0
BBX 3 5 1 0
BITMAP
60
40
80
40
60
ENDCHAR
STARTCHAR bar
ENCODING 124
SWIDTH 1199 0
DWIDTH 6 0
BBX 1 5 2 0
BITMAP
80
80
80
80
80
ENDCHAR
STARTCHAR braceright
ENCODING 125
SWIDTH 1199 0
DWIDTH 6 0
BBX 3 5 1 0
BITMAP
C0
40
20
40
C0
ENDCHAR
STARTCHAR asciitilde
ENCODING 126
SWIDTH 1199 0
DWIDTH 6 0
BBX 5 2 0 2
BITMAP
68
B0
ENDCHAR
STARTCHAR quoteleft
ENCODING 8216
SWIDTH 1199 0
DWIDTH 6 0
BBX 2 2 1 3
BITMAP
40
80
ENDCHAR
STARTCHAR quoteright
ENCODING 8217
SWIDTH 1199 0
DWIDTH 6 0
BBX 2 2 1 3
BITMAP
40
80
ENDCHAR
STARTCHAR quotedblleft
ENCODING 8220
SWIDTH 1199 0
DWIDTH 6 0
BBX 5 2 0 3
BITMAP
48
90
ENDCHAR
STARTCHAR quotedblright
ENCODING 8221
SWIDTH 1199 0
DWIDTH 6 0
BBX 5 2 0 3
BITMAP
48
90
ENDCHAR
STARTCHAR .notdef
ENCODING -1
SWIDTH 968 0
DWIDTH 5 0
BBX 1 1 3 0
BITMAP
00
ENDCHAR
ENDFONT
